<svg xmlns="http://www.w3.org/2000/svg" viewBox="0 0 18 18" shape-rendering="crispEdges">
  <rect width="18" height="18" fill="none"/>

  <rect x="2" y="1" width="3" height="1" fill="#25131d"/>
  <rect x="1" y="2" width="1" height="3" fill="#25131d"/>
  <rect x="2" y="2" width="2" height="1" fill="#ff6d80"/>
  <rect x="4" y="2" width="1" height="1" fill="#f48da0"/>
  <rect x="5" y="2" width="1" height="1" fill="#25131d"/>

  <rect x="2" y="3" width="2" height="1" fill="#ff7187"/>
  <rect x="4" y="3" width="1" height="1" fill="#25131d"/>
  <rect x="5" y="3" width="1" height="1" fill="#a8aaad"/>
  <rect x="6" y="3" width="1" height="1" fill="#25131d"/>

  <rect x="2" y="4" width="1" height="1" fill="#f48da0"/>
  <rect x="3" y="4" width="1" height="1" fill="#25131d"/>
  <rect x="4" y="4" width="1" height="1" fill="#aeb0b2"/>
  <rect x="5" y="4" width="2" height="1" fill="#cacbcc"/>
  <rect x="7" y="4" width="1" height="1" fill="#25131d"/>

  <rect x="3" y="5" width="1" height="1" fill="#25131d"/>
  <rect x="4" y="5" width="3" height="1" fill="#c4c6c8"/>
  <rect x="7" y="5" width="1" height="1" fill="#25131d"/>
  <rect x="8" y="5" width="1" height="1" fill="#25131d"/>

  <rect x="4" y="6" width="1" height="1" fill="#25131d"/>
  <rect x="5" y="6" width="1" height="1" fill="#ff8b11"/>
  <rect x="6" y="6" width="2" height="1" fill="#ffd24a"/>
  <rect x="8" y="6" width="1" height="1" fill="#ffb31b"/>
  <rect x="9" y="6" width="1" height="1" fill="#25131d"/>

  <rect x="5" y="7" width="1" height="1" fill="#25131d"/>
  <rect x="6" y="7" width="3" height="1" fill="#ffd44f"/>
  <rect x="9" y="7" width="1" height="1" fill="#ffb11a"/>
  <rect x="10" y="7" width="1" height="1" fill="#25131d"/>

  <rect x="6" y="8" width="1" height="1" fill="#25131d"/>
  <rect x="7" y="8" width="3" height="1" fill="#ffd656"/>
  <rect x="10" y="8" width="1" height="1" fill="#ffb21f"/>
  <rect x="11" y="8" width="1" height="1" fill="#25131d"/>

  <rect x="7" y="9" width="1" height="1" fill="#25131d"/>
  <rect x="8" y="9" width="3" height="1" fill="#ffd656"/>
  <rect x="11" y="9" width="1" height="1" fill="#ffb21f"/>
  <rect x="12" y="9" width="1" height="1" fill="#25131d"/>

  <rect x="8" y="10" width="1" height="1" fill="#25131d"/>
  <rect x="9" y="10" width="3" height="1" fill="#ffd656"/>
  <rect x="12" y="10" width="1" height="1" fill="#ffb21f"/>
  <rect x="13" y="10" width="1" height="1" fill="#25131d"/>

  <rect x="9" y="11" width="1" height="1" fill="#25131d"/>
  <rect x="10" y="11" width="2" height="1" fill="#ffd656"/>
  <rect x="12" y="11" width="1" height="1" fill="#ff8d11"/>
  <rect x="13" y="11" width="1" height="1" fill="#25131d"/>
  <rect x="14" y="11" width="2" height="1" fill="#edd0c4"/>
  <rect x="16" y="11" width="1" height="1" fill="#25131d"/>

  <rect x="10" y="12" width="1" height="1" fill="#25131d"/>
  <rect x="11" y="12" width="1" height="1" fill="#ff6b00"/>
  <rect x="12" y="12" width="1" height="1" fill="#25131d"/>
  <rect x="13" y="12" width="3" height="1" fill="#edd0c4"/>
  <rect x="16" y="12" width="1" height="1" fill="#25131d"/>

  <rect x="11" y="13" width="1" height="1" fill="#25131d"/>
  <rect x="12" y="13" width="3" height="1" fill="#edd0c4"/>
  <rect x="15" y="13" width="2" height="1" fill="#25131d"/>

  <rect x="12" y="14" width="1" height="1" fill="#25131d"/>
  <rect x="13" y="14" width="2" height="1" fill="#edd0c4"/>
  <rect x="15" y="14" width="2" height="1" fill="#25131d"/>

  <rect x="13" y="15" width="1" height="1" fill="#25131d"/>
  <rect x="14" y="15" width="3" height="1" fill="#25131d"/>
</svg>
